<?xml version="1.0" encoding="UTF-8" ?>
<!DOCTYPE svg PUBLIC "-//W3C//DTD SVG 1.1//EN" "http://www.w3.org/Graphics/SVG/1.1/DTD/svg11.dtd">
<svg width="113pt" height="57pt" viewBox="0 0 143 67" version="1.1" xmlns="http://www.w3.org/2000/svg">
<g id="#316ab3ff">
<path fill="#316ab3" opacity="1.00" d=" M 56.74 0.00 L 60.26 0.00 C 66.62 1.13 70.18 9.13 66.40 14.47 C 62.89 20.30 53.24 19.79 50.38 13.62 C 47.41 8.27 50.99 1.42 56.74 0.00 Z" />
<path fill="#316ab3" opacity="1.00" d=" M 72.09 12.10 C 74.18 7.14 81.21 5.18 85.53 8.49 C 93.49 14.32 96.54 26.24 92.18 35.14 C 89.92 39.93 85.47 43.10 80.93 45.55 C 81.07 56.27 71.87 64.64 62.01 67.00 L 57.87 67.00 C 53.41 66.34 51.15 59.76 55.08 57.06 C 59.27 54.46 64.29 53.42 68.20 50.27 C 63.22 50.61 57.66 50.74 53.53 47.45 C 49.33 43.95 47.33 37.85 48.76 32.55 C 50.49 26.15 57.55 21.79 64.06 23.17 C 71.23 24.43 76.85 30.36 78.84 37.21 C 80.64 35.44 83.53 33.47 82.51 30.53 C 81.19 27.61 77.79 26.58 75.69 24.33 C 72.69 21.18 70.53 16.42 72.09 12.10 M 60.21 33.01 C 57.11 34.73 57.39 39.95 60.71 41.27 C 63.61 42.76 67.49 40.24 67.31 36.99 C 67.48 33.53 63.10 31.04 60.21 33.01 Z" />
</g>
<g id="#ec2027ff">
<path fill="#ec2027" opacity="1.00" d=" M 20.10 14.05 C 22.27 10.18 26.68 8.18 30.98 7.99 C 35.58 7.76 40.76 8.43 44.17 11.84 C 47.60 15.22 48.11 20.55 47.08 25.04 C 44.75 35.73 37.54 44.86 28.66 50.99 C 21.94 49.02 15.37 46.34 9.47 42.55 C 5.78 40.08 2.13 36.67 1.45 32.07 C 0.99 28.76 3.75 25.56 7.05 25.41 C 12.17 24.91 16.33 28.74 18.99 32.70 C 17.81 26.57 16.95 19.75 20.10 14.05 M 23.81 16.78 C 20.09 23.40 20.33 31.45 21.28 38.76 C 18.01 34.46 13.68 29.67 7.88 29.56 C 4.44 30.43 5.65 34.62 7.50 36.48 C 12.83 42.55 20.98 44.70 28.31 47.32 C 34.75 42.92 39.61 36.34 42.16 28.99 C 43.53 24.84 44.38 19.92 42.04 15.95 C 37.97 9.89 27.36 10.38 23.81 16.78 Z" />
<path fill="#ec2027" opacity="1.00" d=" M 115.13 15.07 C 116.81 11.22 120.73 8.66 124.85 8.22 C 129.43 7.75 134.47 7.93 138.39 10.67 C 141.21 12.59 142.69 15.94 143.00 19.26 L 143.00 22.50 C 141.57 34.31 133.66 44.48 124.05 51.05 C 116.26 48.38 108.21 45.55 101.87 40.09 C 98.84 37.44 96.02 33.37 97.41 29.16 C 98.60 25.96 102.48 24.75 105.59 25.59 C 109.55 26.48 112.33 29.68 114.65 32.79 C 113.38 26.99 112.64 20.65 115.13 15.07 M 119.54 16.53 C 115.54 23.17 116.07 31.31 116.71 38.73 C 113.70 34.43 109.48 30.07 104.00 29.56 C 100.71 29.46 100.68 33.69 102.39 35.55 C 107.51 42.38 116.27 44.61 123.94 47.30 C 128.52 44.13 132.30 39.89 135.00 35.03 C 137.84 29.77 140.27 23.45 138.34 17.48 C 135.47 10.00 123.44 9.83 119.54 16.53 Z" />
<path fill="#ec2027" opacity="1.00" d=" M 0.00 54.46 C 0.82 50.59 3.91 47.19 7.94 46.71 C 12.68 45.87 17.52 49.35 18.44 54.02 C 19.70 59.30 15.40 64.91 10.02 65.23 C 5.31 65.70 1.08 62.08 0.00 57.62 L 0.00 54.46 Z" />
<path fill="#ec2027" opacity="1.00" d=" M 100.25 47.25 C 106.48 44.45 114.07 50.43 112.84 57.14 C 112.29 64.05 103.05 67.84 97.85 63.20 C 92.24 59.17 93.70 49.44 100.25 47.25 Z" />
</g>
</svg>
