<svg xmlns="http://www.w3.org/2000/svg" viewBox="0 0 279.12 172.81"><g id="Layer_2" data-name="Layer 2"><g id="Layer_2-2" data-name="Layer 2"><rect x="122" y="21.55" width="110.79" height="149.84" fill="#349afc"/><polygon points="232.79 171.39 232.79 21.55 253.08 31.16 253.08 171.39 232.79 171.39" fill="#0d80ef"/><rect x="165.19" width="32.37" height="21.55" fill="#0069d1"/><polygon points="197.56 0 197.56 21.55 205.5 21.55 197.56 0" fill="#005c9b"/><rect x="27.01" y="42.85" width="94.99" height="128.54" fill="#ffaf74"/><rect x="43.07" y="54.34" width="14.3" height="14.3" fill="#fff"/><rect x="67.32" y="54.34" width="14.3" height="14.3" fill="#fff"/><rect x="91.52" y="54.34" width="14.3" height="14.3" fill="#fff"/><rect x="43.11" y="77.23" width="14.3" height="14.3" fill="#fff"/><rect x="67.35" y="77.23" width="14.3" height="14.3" fill="#fff"/><rect x="91.56" y="77.23" width="14.3" height="14.3" fill="#fff"/><rect x="146.01" y="37.45" width="14.3" height="14.3" fill="#fff"/><rect x="170.25" y="37.45" width="14.3" height="14.3" fill="#fff"/><rect x="194.45" y="37.45" width="14.3" height="14.3" fill="#fff"/><rect x="146.04" y="60.34" width="14.3" height="14.3" fill="#fff"/><rect x="170.28" y="60.34" width="14.3" height="14.3" fill="#fff"/><rect x="194.49" y="60.34" width="14.3" height="14.3" fill="#fff"/><rect x="146.06" y="83" width="14.3" height="14.3" fill="#fff"/><rect x="170.3" y="83" width="14.3" height="14.3" fill="#fff"/><rect x="194.51" y="83" width="14.3" height="14.3" fill="#fff"/><path d="M159.18,171.39V133.78a5.25,5.25,0,0,1,5.24-5.24h23.84a5.25,5.25,0,0,1,5.24,5.24v37.61Z" fill="#0069d1"/><path d="M60.28,171.39V139.45A3.47,3.47,0,0,1,63.76,136H85.17a3.47,3.47,0,0,1,3.47,3.47v31.94Z" fill="#fd845a"/><polygon points="188.7 9.3 188.7 13.33 183.39 13.33 183.39 18.65 179.39 18.65 179.39 13.33 174.04 13.33 174.04 9.3 179.39 9.3 179.39 3.98 183.39 3.98 183.39 9.3 188.7 9.3" fill="#f8fcff"/><rect y="171.39" width="279.12" height="1.41" fill="#c6c6c6"/></g></g></svg>