<svg xmlns="http://www.w3.org/2000/svg" width="49" height="48" viewBox="0 0 49 48" fill="none"><g id="checkup" clip-path="url(#clip0_5811_3275)"><path id="Vector" d="M18.5 10H14.5C13.4391 10 12.4217 10.4214 11.6716 11.1716C10.9214 11.9217 10.5 12.9391 10.5 14V38C10.5 39.0609 10.9214 40.0783 11.6716 40.8284C12.4217 41.5786 13.4391 42 14.5 42H34.5C35.5609 42 36.5783 41.5786 37.3284 40.8284C38.0786 40.0783 38.5 39.0609 38.5 38V14C38.5 12.9391 38.0786 11.9217 37.3284 11.1716C36.5783 10.4214 35.5609 10 34.5 10H30.5" stroke="#003365" stroke-linecap="round" stroke-linejoin="round"></path><path id="Vector_2" d="M26.5 6H22.5C20.2909 6 18.5 7.79086 18.5 10C18.5 12.2091 20.2909 14 22.5 14H26.5C28.7091 14 30.5 12.2091 30.5 10C30.5 7.79086 28.7091 6 26.5 6Z" stroke="#003365" stroke-linecap="round" stroke-linejoin="round"></path><path id="Vector_3" d="M18.5 28L22.5 32L30.5 24" stroke="#003365" stroke-linecap="round" stroke-linejoin="round"></path></g><defs><clipPath id="clip0_5811_3275"><rect width="48" height="48" fill="white" transform="translate(0.5)"></rect></clipPath></defs></svg>