<svg xmlns="http://www.w3.org/2000/svg" xmlns:xlink="http://www.w3.org/1999/xlink" viewBox="0 0 200.53 114.28"><defs><linearGradient id="linear-gradient" x1="48.98" y1="60.1" x2="48.98" y2="-0.61" gradientTransform="matrix(1, 0, 0, -1, 0, 112.31)" gradientUnits="userSpaceOnUse"><stop offset="0" stop-color="#fff"/><stop offset="1" stop-color="#e4eaf1"/></linearGradient><linearGradient id="linear-gradient-2" x1="42.78" y1="72.42" x2="50.03" y2="61.34" gradientTransform="matrix(1, 0, 0, -1, 0, 112.31)" gradientUnits="userSpaceOnUse"><stop offset="0" stop-color="#ffc8b7"/><stop offset="1" stop-color="#f6aa93"/></linearGradient><linearGradient id="linear-gradient-3" x1="41.25" y1="-2.28" x2="29.62" y2="53.59" gradientTransform="matrix(1, 0, 0, -1, 0, 112.31)" gradientUnits="userSpaceOnUse"><stop offset="0" stop-color="#c2eaf1"/><stop offset="0.44" stop-color="#dbeff4"/><stop offset="1" stop-color="#fdfdff"/></linearGradient><linearGradient id="linear-gradient-4" x1="160.98" y1="84.7" x2="164.58" y2="82.49" gradientTransform="matrix(1, 0, 0, -1, 0, 112.31)" gradientUnits="userSpaceOnUse"><stop offset="0" stop-color="#ffbfa1"/><stop offset="1" stop-color="#f6aa93"/></linearGradient><linearGradient id="linear-gradient-5" x1="157.2" y1="38.39" x2="181.25" y2="61.62" gradientTransform="matrix(1, 0, 0, -1, 0, 112.31)" gradientUnits="userSpaceOnUse"><stop offset="0" stop-color="#21ede9"/><stop offset="1" stop-color="#05d5d4"/></linearGradient></defs><g id="Layer_2" data-name="Layer 2"><g id="Layer_1-2" data-name="Layer 1"><rect y="112.88" width="200.53" height="1.4" fill="#c6c6c6"/><path d="M93.2,57.4a76.92,76.92,0,0,1,7.17-23.31c6.17-12.91.89,9.56-1,24.9S93.2,57.4,93.2,57.4Z" fill="#ffc8b7"/><path d="M117.6,5.12,82.92.24,76.63,45l34.67,4.88Z" fill="#403882" stroke="#000" stroke-width="0.1" opacity="0.52" style="isolation:isolate"/><path d="M94.71,47.58C91,37.49,83.93,21.27,84.29,18.16c.32-2.82,5.82-12.32,8.35-16.55l21.33,3A118.32,118.32,0,0,0,98.77,21.2c6.64,10.29,9.16,24.66,9.72,28.31Z" fill="#f2f5f8" opacity="0.34" style="isolation:isolate"/><g opacity="0.65"><path d="M89.82,20a1.46,1.46,0,1,0-1.46-1.46A1.47,1.47,0,0,0,89.82,20Z" fill="#fff" opacity="0.65" style="isolation:isolate"/><path d="M94.92,20a.73.73,0,1,0-.73-.73A.73.73,0,0,0,94.92,20Z" fill="#fff" opacity="0.65" style="isolation:isolate"/><path d="M91.62,13.69l6.85-9.88" fill="none" stroke="#fff" stroke-linecap="round" opacity="0.65" style="isolation:isolate"/><path d="M96.19,15.23l8.17-10.76" fill="none" stroke="#fff" stroke-linecap="round" opacity="0.65" style="isolation:isolate"/><path d="M100.07,46.67,91.2,22.86" fill="none" stroke="#fff" stroke-linecap="round" opacity="0.65" style="isolation:isolate"/><path d="M103.71,47.78,95.58,22.86" fill="none" stroke="#fff" stroke-linecap="round" opacity="0.65" style="isolation:isolate"/></g><path d="M73.75,55.21S76.46,56.22,81,67s3.62,17,6.15,9.22,3.29-20.12,3.29-20.12l12.6,1.73s-.51,53.38-30.86,31.94c-7.5-4.71-5-15.3-5-15.3Z" fill="#e4eaf1"/><path d="M62.21,18.77s7.46-2.84,7.29,9.67c0,3.36-.06,6.94-.07,10.45,0,9.36.07,17.77.07,17.77L52.34,56l6.12-33.67Z" fill="#003468"/><path d="M40.88,49.8c4.2,0,7.6-3,7.6-6.76s-3.4-6.75-7.6-6.75-7.6,3-7.6,6.75S36.68,49.8,40.88,49.8Z" fill="#003468"/><path d="M41.41,57.67c-2.9,0-8.17-2.78-8.4-2.9a33.08,33.08,0,0,1-4.35-5.84,21.74,21.74,0,0,1-3.32-13.49h9.54A20,20,0,0,0,39,48c3.4,4.55,4.79,7.52,4.13,8.84a1.75,1.75,0,0,1-.75.65A1.77,1.77,0,0,1,41.41,57.67Z" fill="#fdc861"/><path d="M53.68,49.49s-7.75-4.51-16.07-3-8.09,12.11-8.09,12.11L52.79,53Z" fill="#ebb64e"/><path d="M21.76,112.88l-2.9-53.1c0,.19,0-6.94,15.23-7.42s34.27.3,34.27.3,9,0,9.5,8.71,1.25,51.54,1.25,51.54Z" fill="url(#linear-gradient)"/><path d="M38.7,54.57,49.27,99.62h.8l9.4-45.77L57.3,52.49Z" fill="#1cbae7"/><path d="M40,83.61l1.16-7.51-7.53-2L35,52.34c1.91-.06,3.87-.09,5.84-.11l8.75,48.11Z" fill="#d8e0e8"/><path d="M57.84,52.37l2.95.07,3.83,19.17-6.11,4.32.73,6.62-9.78,19.62Z" fill="#d8e0e8"/><path d="M56.78,47.07a7.46,7.46,0,0,1,.63,7.6C54.85,59.78,42,62.28,36.26,48.88a78.5,78.5,0,0,1,14.68,1.31l.91-3.12Z" fill="#ebb64e"/><path d="M39.65,40.45s1.23,8.27,6.26,9.93c2.37.53,4.06.11,6.53-1.73C55.93,45.72,40.58,39,40.58,39Z" fill="url(#linear-gradient-2)"/><path d="M54.26,17.36c7.29,0,11.22,12.56,11.22,19.86A13.22,13.22,0,1,1,39,37.2C39,29.91,47,17.36,54.26,17.36Z" fill="#ffc8b7"/><path d="M58.13,22.12s-9.48,11.28-20,14.26c-.5.13-1.24,1.38-1.24,1.38L33.05,38s-.65-11.92,0-12.57,7.84-9,7.84-9l3-2.64S49.2,7.3,55.82,7.89a8.42,8.42,0,0,1,8,10.14C63.15,22.25,58.13,22.12,58.13,22.12Z" fill="#003468"/><path d="M56.13,42.08s-.32.86-9.41-1.62c3.53,5.21,6.91,5.82,6.91,5.82L55,44Z" fill="#fff"/><path d="M38.34,41.35A3.38,3.38,0,1,0,35,38,3.37,3.37,0,0,0,38.34,41.35Z" fill="#ffc8b7"/><path d="M57.69,20S53.14,18.69,66,29.85c5.06,4.39-7.71-17.1-7.71-17.1Z" fill="#003468"/><path d="M25.24,38.82a16.87,16.87,0,0,1,.11-3.48C26.8,25.12,31.8,20.71,46,11.67c0,0-13,13.26-10.89,27.15Z" fill="#fdc861"/><path d="M54.66,102.62s10-2.19,26.11,7.59c8.63,5.23-3.4,2.49-8.61,1.18-.65-.16-13.12-2.73-17.5-3.15C41.89,107,54.66,102.62,54.66,102.62Z" fill="#ffc8b7"/><path d="M27.71,53.35s-13.79.34-14.21,22.87.61,34.94,23.14,36.29c11.66.7,23.08.45,23.08.45l1.4-13.23S41.06,99,35.83,97.51c-3.74-1.07-9-4.34-8.7-13.09C27.55,73.45,32.29,53.31,27.71,53.35Z" fill="url(#linear-gradient-3)"/><path d="M148.59,0a18.25,18.25,0,0,1,18.24,18.24c0,10.07-12.69,22-22.76,22-1.9,0,.79-4-1.37-4.71A18.24,18.24,0,0,1,148.59,0Z" fill="url(#linear-gradient-4)"/><path d="M125.79,35.48S116.67,32,111.65,53.67s-4.21,23.83-4.21,23.83l10.4,1.22Z" fill="#17c7c4"/><path d="M109.65,75.52l-4.15,37.36s9.7.5,9.67,0,3.11-36.59,3.11-36.59Z" fill="#f6aa93"/><path d="M160.39,25.13l-2.21-1.05s4.56-7.12.58-9.27a19.67,19.67,0,0,1,.45-4.78,33,33,0,0,1-22.75-5.4A18.24,18.24,0,0,1,164.58,27Z" fill="#461b2c"/><path d="M111.11,113s3.17-51.2,4.69-64.44,5.09-14.12,17.45-14.19,34.28,2,34.28,2,14.37.71,13,21.8c-.59,8.41,0,16.64-.16,25.28a91.44,91.44,0,0,1-1.52,14.18c-1.67,9.67-1,6.43-3.58,15.25Z" fill="#04d7d3"/><path d="M167.55,64.16A77.38,77.38,0,0,1,127,79.59c-26.63,2.19-32.43-3.19-33.2-.92-.28.78,10.18,10.43,38.62,9.17S177,69.39,177,69.39Z" fill="#ffbfa1"/><path d="M163.72,21.89a3.12,3.12,0,0,1,0,6.23c-1.73,0-4.14.64-4.14-1.08S162,21.89,163.72,21.89Z" fill="#ffbfa1"/><path d="M173.57,44.65S169,55.7,150,70.22c10.91,14.89,12.72,15.22,12.72,15.22a32.53,32.53,0,0,0,17.44-25.17c2.2-18.36-7.26-20.35-7.26-20.35Z" fill="url(#linear-gradient-5)"/><path d="M158.2,52.83s2.94-17.2,1.93-17.37" fill="none" stroke="#003468" stroke-linecap="round"/><path d="M136.43,34.38s0-.66-.36,1a68.46,68.46,0,0,0-.72,8.1" fill="none" stroke="#003468" stroke-linecap="round"/><path d="M136,67.78s3.8,1,4.21-5.9.65-11.32.65-11.32.69-6.44-5.43-6.86S129,49.83,129,49.83L128,61.11s-.84,5.72,2.82,6.2" fill="none" stroke="#003468" stroke-linecap="round"/><path d="M158.34,59.86a4.12,4.12,0,1,0-4.11-4.12A4.12,4.12,0,0,0,158.34,59.86Z" fill="#fff"/><path d="M158.34,59.13A3.39,3.39,0,1,0,155,55.74,3.38,3.38,0,0,0,158.34,59.13Z" fill="none" stroke="#003468"/><path d="M141.86,25.54c3.21,0,6.11,1.21,6.11,5.23s-2.28,5.64-5.49,5.64-6.16-1.62-6.16-5.64S138.64,25.54,141.86,25.54Z" fill="#461b2c"/><path d="M139.92,29.73a6,6,0,0,0,4.05.47" fill="none" stroke="#ffbfa1" stroke-linecap="round" stroke-width="0.5"/></g></g></svg>