<svg xmlns="http://www.w3.org/2000/svg" width="63" height="63" viewBox="0 0 63 63" fill="none">
  <g filter="url(#filter0_d_10294_26785)">
    <path d="M5.88586 53.4208V11.5487C5.88586 8.98593 6.90391 6.52816 8.71603 4.71603C10.5282 2.90391 12.9859 1.88586 15.5487 1.88586H47.758C50.3207 1.88586 52.7785 2.90391 54.5906 4.71603C56.4028 6.52816 57.4208 8.98593 57.4208 11.5487V30.8743C57.4208 33.437 56.4028 35.8948 54.5906 37.7069C52.7785 39.519 50.3207 40.5371 47.758 40.5371H18.7696L5.88586 53.4208Z" fill="white"/>
    <path d="M5.88586 53.4208V11.5487C5.88586 8.98593 6.90391 6.52816 8.71603 4.71603C10.5282 2.90391 12.9859 1.88586 15.5487 1.88586H47.758C50.3207 1.88586 52.7785 2.90391 54.5906 4.71603C56.4028 6.52816 57.4208 8.98593 57.4208 11.5487V30.8743C57.4208 33.437 56.4028 35.8948 54.5906 37.7069C52.7785 39.519 50.3207 40.5371 47.758 40.5371H18.7696L5.88586 53.4208Z" stroke="black" stroke-width="2" stroke-linecap="round" stroke-linejoin="round"/>
  </g>
  <path d="M16.8023 13.202H42.5698" stroke="black" stroke-width="2" stroke-linecap="round" stroke-linejoin="round"/>
  <path d="M16.8023 26.0846H36.1279" stroke="black" stroke-width="2" stroke-linecap="round" stroke-linejoin="round"/>
  <defs>
    <filter id="filter0_d_10294_26785" x="0.885864" y="0.885864" width="61.5349" height="61.5349" filterUnits="userSpaceOnUse" color-interpolation-filters="sRGB">
      <feFlood flood-opacity="0" result="BackgroundImageFix"/>
      <feColorMatrix in="SourceAlpha" type="matrix" values="0 0 0 0 0 0 0 0 0 0 0 0 0 0 0 0 0 0 127 0" result="hardAlpha"/>
      <feOffset dy="4"/>
      <feGaussianBlur stdDeviation="2"/>
      <feComposite in2="hardAlpha" operator="out"/>
      <feColorMatrix type="matrix" values="0 0 0 0 0 0 0 0 0 0 0 0 0 0 0 0 0 0 0.16 0"/>
      <feBlend mode="normal" in2="BackgroundImageFix" result="effect1_dropShadow_10294_26785"/>
      <feBlend mode="normal" in="SourceGraphic" in2="effect1_dropShadow_10294_26785" result="shape"/>
    </filter>
  </defs>
</svg>