<svg width="64" height="64" viewBox="0 0 64 64" fill="none" xmlns="http://www.w3.org/2000/svg">
<g id="icon" filter="url(#filter0_d_5573_3125)">
<path id="Vector" d="M19.1897 20.387C18.5621 21.1283 18.0324 22.1798 18.4981 23.3951L18.4975 23.3954L18.5125 23.4318L19.0787 23.2043L18.5468 23.498C20.4554 26.9551 22.6699 30.3088 25.5643 33.3763C28.4689 36.4682 32.0722 39.2706 36.7241 41.655L36.7316 41.6589L36.7392 41.6626C37.3254 41.9506 37.9388 41.9655 38.4878 41.7491C39.1221 41.503 39.6836 41.0206 40.1411 40.5595C40.5373 40.1625 40.9949 39.5655 41.4266 38.985C42.3228 37.7979 43.2113 36.636 44.2085 35.9138C44.6917 35.564 45.1584 35.3507 45.6208 35.2783C46.0706 35.2079 46.5783 35.2607 47.1749 35.5409L47.1756 35.5411C47.1775 35.5422 47.1851 35.5463 47.2039 35.5569L47.2085 35.5594C47.2301 35.5716 47.2688 35.5933 47.3164 35.6171L57.446 41.4716C57.4587 41.4811 57.4755 41.4935 57.4941 41.5063C57.5085 41.5163 57.5269 41.5285 57.5485 41.5418C58.5343 42.2385 58.9863 43.3128 59 44.6903C58.9988 46.1251 58.4642 47.8121 57.635 49.2796C56.5839 51.1332 55.0301 52.3761 53.1859 53.2181L53.1812 53.2203C51.4072 54.0414 49.3993 54.4946 47.407 54.79L47.407 54.79C44.3778 55.2392 41.5406 54.9564 38.6112 54.0505C35.7348 53.1544 32.8078 51.67 29.5566 49.6533L29.3201 49.501L29.3201 49.5009L29.3092 49.4941L29.2086 49.4311C27.7253 48.5024 26.1673 47.527 24.6433 46.3871C18.8773 42.0135 13.0135 35.7026 9.2066 28.7829C6.01161 22.9715 4.32688 16.8026 5.25308 10.9967C5.76349 7.82055 7.10268 5.035 9.34549 3.22586L9.34698 3.22466C11.2915 1.65 13.9491 0.74651 17.5018 1.06263L17.513 1.06362L17.5241 1.06437C17.6101 1.07007 17.693 1.124 17.7336 1.19932L17.7425 1.21567L17.7519 1.23168L24.2906 12.3453L24.3219 12.3986L24.3596 12.4476C24.7521 12.9584 24.9372 13.4185 24.9937 13.8349C25.05 14.2487 24.9881 14.6839 24.7872 15.161C24.4505 15.9434 23.7377 16.744 22.6131 17.566L22.5823 17.5885L22.5532 17.6134C22.2401 17.8812 21.8608 18.1592 21.4209 18.4816L21.4031 18.4947L21.4012 18.496L21.3893 18.5048C20.6839 19.0194 19.8047 19.6607 19.1897 20.387Z" fill="white" stroke="#010101" stroke-width="2"/>
</g>
<defs>
<filter id="filter0_d_5573_3125" x="0" y="0" width="64" height="64" filterUnits="userSpaceOnUse" color-interpolation-filters="sRGB">
<feFlood flood-opacity="0" result="BackgroundImageFix"/>
<feColorMatrix in="SourceAlpha" type="matrix" values="0 0 0 0 0 0 0 0 0 0 0 0 0 0 0 0 0 0 127 0" result="hardAlpha"/>
<feOffset dy="4"/>
<feGaussianBlur stdDeviation="2"/>
<feComposite in2="hardAlpha" operator="out"/>
<feColorMatrix type="matrix" values="0 0 0 0 0 0 0 0 0 0 0 0 0 0 0 0 0 0 0.16 0"/>
<feBlend mode="normal" in2="BackgroundImageFix" result="effect1_dropShadow_5573_3125"/>
<feBlend mode="normal" in="SourceGraphic" in2="effect1_dropShadow_5573_3125" result="shape"/>
</filter>
</defs>
</svg>
