<svg xmlns="http://www.w3.org/2000/svg" width="49" height="48" viewBox="0 0 49 48" fill="none"><g id="Insurance"><path id="Vector" d="M10.5 24H6.5L24.5 6L42.5 24H38.5" stroke="#003365" stroke-linecap="round" stroke-linejoin="round"></path><path id="Vector_2" d="M38.5 24V38C38.5 39 38.1 40 37.3 40.8C36.5 41.6 35.5 42 34.5 42H14.5C13.5 42 12.5 41.6 11.7 40.8C10.9 40 10.5 39 10.5 38V24" stroke="#003365" stroke-linecap="round" stroke-linejoin="round"></path><path id="Vector_3" d="M24.5 29.4C27.3 29.4 29.5 27.1999 29.5 24.4C29.5 21.6 27.3 19.2 24.5 19.2C21.7 19.2 19.5 21.4 19.5 24.2C19.5 27 21.7 29.4 24.5 29.4Z" stroke="#003365" stroke-linecap="round" stroke-linejoin="round"></path><path id="Vector_4" d="M16.8999 41.9999V39.3999C16.8999 37.9999 17.4999 36.7999 18.2999 35.7999C19.2999 34.7999 20.4999 34.3999 21.8999 34.3999H26.8999C28.2999 34.3999 29.4999 34.9999 30.4999 35.7999C31.4999 36.7999 31.8999 37.9999 31.8999 39.3999V41.9999" stroke="#003365" stroke-linecap="round" stroke-linejoin="round"></path></g></svg>