<svg width="21" height="20" viewBox="0 0 21 20" fill="none" xmlns="http://www.w3.org/2000/svg">
<g id="Location" clip-path="url(#clip0_6714_23000)">
<path id="Subtract" fill-rule="evenodd" clip-rule="evenodd" d="M17.6973 10.5491C17.4241 11.9231 16.7495 13.1852 15.7589 14.1759L12.2229 17.7119C11.8323 18.1021 11.3027 18.3213 10.7505 18.3213C10.1983 18.3213 9.66863 18.102 9.27799 17.7117L5.74128 14.1759C4.7507 13.1852 4.07611 11.9231 3.80283 10.5491C3.52955 9.17505 3.66984 7.75085 4.20597 6.45656C4.7421 5.16227 5.64999 4.05603 6.81483 3.27772C7.97967 2.49941 9.34915 2.08398 10.7501 2.08398C12.151 2.08398 13.5205 2.49941 14.6853 3.27772C15.8502 4.05603 16.7581 5.16227 17.2942 6.45656C17.8303 7.75085 17.9706 9.17505 17.6973 10.5491ZM7.83341 9.16711C7.83341 7.55628 9.13925 6.25045 10.7501 6.25045C12.3609 6.25045 13.6667 7.55628 13.6667 9.16711C13.6667 10.7779 12.3609 12.0838 10.7501 12.0838C9.13925 12.0838 7.83341 10.7779 7.83341 9.16711Z" fill="#0067CD"/>
</g>
<defs>
<clipPath id="clip0_6714_23000">
<rect width="20" height="20" fill="white" transform="translate(0.75)"/>
</clipPath>
</defs>
</svg>
