<svg xmlns="http://www.w3.org/2000/svg" xmlns:xlink="http://www.w3.org/1999/xlink" width="567" height="46" viewBox="0 0 567 46">
  <defs>
    <clipPath id="clip-path">
      <path id="Intersection_2" data-name="Intersection 2" d="M0,45.984V1.033L.857,0H566.984V45.984Z" transform="translate(0 0)" fill="#dadee2"/>
    </clipPath>
    <clipPath id="clip-path-2">
      <path id="Intersection_3" data-name="Intersection 3" d="M0,45.984V1.033L.857,0H566.984V45.984Z" fill="#dadee2"/>
    </clipPath>
    <clipPath id="clip-path-4">
      <path id="Path_7262" data-name="Path 7262" d="M.5.509,567.482.49l0,46-567-.013Z" transform="translate(-0.484 -0.49)" fill="#fff" stroke="#707070" stroke-width="1"/>
    </clipPath>
  </defs>
  <g id="Group_6606" data-name="Group 6606" transform="translate(17435.516 18034.51)">
    <path id="Intersection_1" data-name="Intersection 1" d="M0,45.984V0H566.984V45.984Z" transform="translate(-17435.5 -18034.5)" fill="#edf2f7"/>
    <g id="Mask_Group_6" data-name="Mask Group 6" transform="translate(-17435.5 -18034.5)" clip-path="url(#clip-path)">
      <path id="Fill-18" d="M149.651,67.854c-2.71,3.24-5.071,2.46-9.355-.274s-2.889-2.93-6.687-4.938-3.743-.11-9.92-3.61-10.413-2.14-13.6-3.446c-3.066-1.255-1.171-5.6-10.156-9.18s-9.476-5.183-19.389-8.556-19.352-6.5-24.016-6.158-16.032-6.111-5.29-5.134c0,0,7.774,2.125,14.035.411s18.514-6.335,29.308-4.832S120.046,30,130.144,39.777,152.362,64.614,149.651,67.854ZM46.231,16.166C24.73,17.965,6.78,5.5,0,0L.737,25.535C11.711,31.084,46.574,40.5,54.8,42.275c9.232,1.994,24.687,7.619,37.1,13.844s13.595.053,16.115,4.954,14.843,8.02,17.374,13.265,10.392,6.856,17.543,19.132,5.869,26.72,1.265,43.823-17.093,67.076,9.431,20.618S165.74,71.384,141.016,38.94,73.689,13.867,46.231,16.166Z" transform="matrix(-0.616, 0.788, -0.788, -0.616, 538.344, -58.081)" fill="#aadaff" fill-rule="evenodd"/>
    </g>
    <g id="Group_6605" data-name="Group 6605" transform="translate(-17435.5 -18034.5)">
      <path id="Fill-40" d="M9.562,3.319C9.231,1.73,8.45-.489,6.668.1A16.087,16.087,0,0,0,2.935,2.039a6.345,6.345,0,0,0-2.892,4.1C-.322,8.275,1.764,10.42,2.095,12.6a12.517,12.517,0,0,0,1.863,5.545,18.718,18.718,0,0,0,3.429,3.241c.794.723,2.28,2.166,3.517,1.454.945-.544.417-1.836.316-2.74a6.127,6.127,0,0,1,.392-3.535c.806-1.723,1.532-4.979-.456-6.326-.958-.65-1.773.185-2.742-.239-1.171-.514-1.593-2.3-1.622-3.431C6.767,5.6,6.867,5.3,7.635,4.8,8.28,4.37,9.66,4.432,9.562,3.319" transform="matrix(-0.616, 0.788, -0.788, -0.616, 373.426, 31.528)" fill="#98ca86" fill-rule="evenodd"/>
      <g id="Mask_Group_7" data-name="Mask Group 7" transform="translate(0 0)" clip-path="url(#clip-path-2)">
        <path id="Union_5" data-name="Union 5" d="M16.014,47.222a11.174,11.174,0,0,0-3.337-.277c-1.716.034-3.347.067-4.744-1.231C5.843,43.772,5.2,41.265,4.077,38.8,3.065,36.574.433,34.72.051,32.32c-.633-3.964,4.8-8.635,7.8-10.883,3.275-2.457,6.446-2.715,10.608-1.294,2.908.994,5.723,2.311,8.634,3.342.674.239,2.033.344,2.445.969.489.743.079,2.581.353,3.539,1.1,3.84,3,9.485,6.136,12.439,1.391,2.193,5.15,3.437,4.235,6.6-.63,2.176-3.727,3.141-5.879,3.227a95.243,95.243,0,0,0-9.55.789,5.607,5.607,0,0,1-.775.055C20.825,51.1,19.209,48.129,16.014,47.222Zm22.8-13.471c-1.52-1.186-2.009-3.292-2.365-5.009-.314-1.512-1.716-5.209-.14-5.928.92-.419,2.274-.137,3.66.144,1.626.331,3.295.661,4.36-.139,1.491-1.122.244-5.8.231-7.341S44.3,10.232,45.7,9.128c1.025-.808,4.569-.968,5.86-1.311,2.585-.689,3.775-1.064,3.582-3.622C54.995,2.241,54.223.79,56.471.35A23.121,23.121,0,0,1,60.813.1c.562,0,1.114,0,1.636-.007,2.29-.054,3.36-.52,4.344,1.211.868,1.529,1.434,3.194,2.3,4.752,2.5,4.5,5.789,8.621,8.148,13.2,1.636,3.429-11.358,2.519-13.268,3.027-1.66.442-1.8.486-1.335,1.807.786,2.222,2.606,4.313,3.465,6.6.929,2.473.4,2.364-2,2.363-3.586,0-7.182.278-10.767.4-3.47.119-6.964.348-10.423.666-.873.08-1.6.234-2.277.234A2.776,2.776,0,0,1,38.809,33.751Z" transform="translate(223.882 -28.075)" fill="#98ca86"/>
      </g>
    </g>
    <g id="Mask_Group_8" data-name="Mask Group 8" transform="translate(-17435.5 -18034.5)" clip-path="url(#clip-path)">
      <path id="Union_6" data-name="Union 6" d="M16.558,86.592C11.9,83.445,4.894,86.107,1.163,80.827c-3.343-4.731,1.269-9.19,4.421-13C9.4,63.222,12.871,62.812,18.367,61c4.458-1.474,6.784-4.287,10.72-6.454,2.214-1.22,6.835-.761,4.309-4.818-1.532-2.46-6.412-1.146-8.325-3.683-2.693-3.574,2.088-15.236,6.717-15.518,4.36-.265,2.807,5.965,6.31,7.088,2.478.8,3.169-1.337,4.717-1.917,1.084-.408,4.977-1.046,5.689-1.481,5.83-3.556-1.012-6.849-3.666-10.716-3.134-4.566-.476-6.037.2-10.432.687-4.471-.162-6.8,4.155-10.9,2.734-2.6,7-4.4,9.9,4.039,2.533,4.684,8.263,10.117,12.283,12.75,5.984,3.921,5.689,8.266,8.088,14.74,2.168,5.85,7.438,11.731,8.245,17.885.232,1.776-.587,3.761-.343,5.444.338,2.344,1.649,3.23,2.574,5.213,1.621,3.48,1.751,4.1-2,6.77-3.258,2.311-7.469,3.2-10.656,5.583-2.3,1.726-4.128,4.678-5.71,6.552-.289-9.29-11.031-1.731-11.351,4.336-.272,5.128-.543,5.8-5.766,9.443-4.953,3.453-10.827,9.265-16.617,11.434a10.386,10.386,0,0,1-3.644.726C24.873,107.081,23,90.945,16.558,86.592Zm197.29,15.058c-8.6-6.264-16.619-11.693-19.359-21.655-.842-3.064.73-2.835-2.571-4-1.762-.624-5.655-.074-7.414.343-5.389,1.279-11.263,5.287-17.047,3.095-5.322-2.016-6.912-6.145-13.423-6.933-6.131-.742-11-.141-14.471-6.03-1.757-2.981-1.437-8.536-5.219-10.255-2.1-.954-3.949-.119-5.912.715a9.336,9.336,0,0,1-5.378,1.048c-3.325-.573-5.97-3.4-9.1-4.745-4.762-2.046-11-2-14.51-5.911-3.681-4.1-4.967-13.166-4.31-18.161,1.178-8.971,5.689-11.609,14.138-15.179,3.161-1.335,6.841-1.9,9.069-4.618,2.394-2.918,1.507-4.879,5.436-6.8a15.952,15.952,0,0,1,6.938-1.59L237.745,79.724,217.59,104.018A32.915,32.915,0,0,1,213.848,101.65Z" transform="translate(453.17 -25.54)" fill="#faeec4"/>
    </g>
    <g id="Mask_Group_9" data-name="Mask Group 9" transform="translate(-17435.516 -18034.51)" clip-path="url(#clip-path-4)">
      <path id="Stroke-49" d="M0,.61c29.09-2.568,57.3.523,83.445,48.018M91.561,6.385C93,30.42,114.4,76.322,115.783,85.418c.891,5.879-2.744,25.03-11.758,43.71M268.866,212.38,260.8,383.942s28.451-22.64,33.33-34.611,8.176-27.02,4-42.285,2.553-40.813,4.652-45.674-6.461-25.675-15.016-32.757M276.943,193.6,95.8,80.947,31.836,71.611" transform="matrix(-0.616, 0.788, -0.788, -0.616, 487.418, -2.173)" fill="none" stroke="#fffffe" stroke-linecap="round" stroke-linejoin="round" stroke-width="5" fill-rule="evenodd"/>
    </g>
    <g id="Mask_Group_11" data-name="Mask Group 11" transform="translate(-17435.516 -18034.51)" clip-path="url(#clip-path-4)">
      <path id="Stroke-47" d="M115.312,182.51c17.51-18.621,34.578-36.674,41.751-44.131m-4.29,4.486s-28.735-24-44.83-36.211S52.548,59.6,38.666,44.05,13.775,21.1,13.775,21.1L0,0M57.244,15.442,38.666,44.05s-4.784,11.926,4.612,20.166,13.131,16.756-.44,30.076M177.263,127.03s-28.752,30.673-57.786,62.647M42.837,94.292" transform="matrix(-0.616, 0.788, -0.788, -0.616, 356.422, 19.06)" fill="none" stroke="#fffffe" stroke-linecap="round" stroke-linejoin="round" stroke-width="3" fill-rule="evenodd"/>
    </g>
    <g id="Mask_Group_10" data-name="Mask Group 10" transform="translate(-17435.516 -18034.51)" clip-path="url(#clip-path-4)">
      <g id="Group_6604" data-name="Group 6604" transform="translate(-12.88 -95.075)">
        <path id="Stroke-50" d="M102.985,178.629l28.225,26.023M51.9,40.436s-8.16,7.425-19.089,21.636M8.835,55.428l14.64,16.959M7.32,81.21,5.851,64.875c4.8-15.028,7.675-21.159.276-35.746S-1.023,6.072,1.826,0m36.523,92.1,5.336,22.548,78.024,15.151s.089,26.8,13.487,18.85" transform="matrix(-0.616, 0.788, -0.788, -0.616, 244.408, 126.618)" fill="none" stroke="#fffffe" stroke-linecap="round" stroke-linejoin="round" stroke-width="1" fill-rule="evenodd"/>
        <path id="Stroke-51" d="M-.047,42.494s-.917-12.085,4.6-20.7S10.163-1.993,20.278.16Z" transform="matrix(-0.616, 0.788, -0.788, -0.616, 78.533, 118.168)" fill="none" stroke="#fffffe" stroke-linecap="round" stroke-linejoin="round" stroke-width="1" fill-rule="evenodd"/>
        <path id="Stroke-52" d="M0,0,16.374,8.383l8.478,4.252,2.679-3.69,41.457,4.982" transform="matrix(-0.616, 0.788, -0.788, -0.616, 576.826, 106.471)" fill="none" stroke="#fffffe" stroke-width="1" fill-rule="evenodd"/>
        <path id="Stroke-53" d="M9.488,17.073,6.382,27.579m5.735,33.137h0L37.17,73.93,34.994,95.057m-5.831-40.2L47.3,22.962,30.453,2.036,26.67.334l.621-.325M.121,44.767l7.986,5.306,8.576-17.232,1.923.983L23.05,18.976,24.126-.062M9.488,17.073l31,2.86L47.3,22.962M36.05,35.143l-.227-7.879,4.662-7.33m-13.4,18.143L12.116,60.716M10.595,45.074l18.568,9.782M.121,44.767l3.1-5.276m.488-13.28L-.1,37.28M1.18,33.568,33.511,54.683,50.124,24.735M54.55,94.129l-.179-6.2L36.24,85.13M34.156,53.517l24.277,14.34-4.4,8.36L54.171,81l-2.7,6.48M37.817,46.921,89.576,77.448,98.7,111.524m-25.065-14.5L72.78,67.542l2.253,1.328,3.331-6.214-2.239-6.726,2.9-8.852L71.3,43.288l-.079-3.919" transform="matrix(-0.616, 0.788, -0.788, -0.616, 598.246, 120.376)" fill="none" stroke="#fffffe" stroke-width="1" fill-rule="evenodd"/>
        <path id="Stroke-54" d="M20.731,51.691l-2.547,8.416,23.38,9.929M4.734,68.957l3.444.1,2.379-2.005,3.211,1.131,1.345-3.827,7.366,2.667M5.518,61.337l3.744-1.115L14.644,48.1M-.149,58.348,3.9,48.81l9.244,2.659M9.962,58.645,1.5,54.466m17.3-30.184,1.524,7.112-4.56,8.6m12.7,7.49,2.719-7.039L29,35l-8.675-3.6m19.316-.7.321,11.112L36.184,52.033M18.472,12.143l5.769.169m-1.272,12.47L21.356,12.227m4.556,12.908,1.011-8.62,12.68.371M58.957,31.111m8.42,5.01M36.718-.094,65.609,93.571l17.076,4.645m-.341,18.68,21.085-5.5,63.015,65.044L161.626,187.1l-25.313-21.76-17.045-9.483m39.7,35.344-27.074-22.746m-9.5,6.693,13.927-9.808m25.313,21.76-20.861-23.537,7.147-3.758M135.9,151.2m-1.243-14.075-11.336,1.038-8.478,5.979" transform="matrix(-0.616, 0.788, -0.788, -0.616, 568.838, 137.565)" fill="none" stroke="#fffffe" stroke-width="1" fill-rule="evenodd"/>
      </g>
    </g>
  </g>
</svg>
