<svg xmlns="http://www.w3.org/2000/svg" width="49" height="48" viewBox="0 0 49 48" fill="none"><g id="save" clip-path="url(#clip0_5811_3280)"><path id="Vector" d="M12.5 8H32.5L40.5 16V36C40.5 37.0609 40.0786 38.0783 39.3284 38.8284C38.5783 39.5786 37.5609 40 36.5 40H12.5C11.4391 40 10.4217 39.5786 9.67157 38.8284C8.92143 38.0783 8.5 37.0609 8.5 36V12C8.5 10.9391 8.92143 9.92172 9.67157 9.17157C10.4217 8.42143 11.4391 8 12.5 8" stroke="#003365" stroke-linecap="round" stroke-linejoin="round"></path><path id="Vector_2" d="M24.5 32C26.7091 32 28.5 30.2091 28.5 28C28.5 25.7909 26.7091 24 24.5 24C22.2909 24 20.5 25.7909 20.5 28C20.5 30.2091 22.2909 32 24.5 32Z" stroke="#003365" stroke-linecap="round" stroke-linejoin="round"></path><path id="Vector_3" d="M28.5 8V16H16.5V8" stroke="#003365" stroke-linecap="round" stroke-linejoin="round"></path></g><defs><clipPath id="clip0_5811_3280"><rect width="48" height="48" fill="white" transform="translate(0.5)"></rect></clipPath></defs></svg>